<mxfile host="app.diagrams.net" modified="2021-11-23T08:42:32.447Z" agent="5.0 (Macintosh; Intel Mac OS X 10_15_7) AppleWebKit/537.36 (KHTML, like Gecko) Chrome/96.0.4664.45 Safari/537.36" etag="tlh3jnTXZelOlGos104B" version="14.6.13" type="github">
  <diagram id="ceBjnJbVh1Aek3-lfcm4" name="Page-1">
    <mxGraphModel dx="1034" dy="688" grid="1" gridSize="10" guides="1" tooltips="1" connect="1" arrows="1" fold="1" page="1" pageScale="1" pageWidth="827" pageHeight="1169" math="0" shadow="0">
      <root>
        <mxCell id="0" />
        <mxCell id="1" parent="0" />
        <mxCell id="3qK-AXKtgEHq6JbBa0pC-3" style="edgeStyle=orthogonalEdgeStyle;rounded=0;orthogonalLoop=1;jettySize=auto;html=1;exitX=1;exitY=0.5;exitDx=0;exitDy=0;" parent="1" source="3qK-AXKtgEHq6JbBa0pC-4" target="3qK-AXKtgEHq6JbBa0pC-6" edge="1">
          <mxGeometry relative="1" as="geometry" />
        </mxCell>
        <mxCell id="3qK-AXKtgEHq6JbBa0pC-4" value="client" style="rounded=0;whiteSpace=wrap;html=1;sketch=1;fillColor=#dae8fc;strokeColor=#6c8ebf;shadow=0;glass=0;" parent="1" vertex="1">
          <mxGeometry x="70" y="440" width="120" height="60" as="geometry" />
        </mxCell>
        <mxCell id="3qK-AXKtgEHq6JbBa0pC-5" style="rounded=0;orthogonalLoop=1;jettySize=auto;html=1;exitX=1;exitY=0.5;exitDx=0;exitDy=0;entryX=0.16;entryY=0.55;entryDx=0;entryDy=0;entryPerimeter=0;" parent="1" source="3qK-AXKtgEHq6JbBa0pC-6" target="3qK-AXKtgEHq6JbBa0pC-7" edge="1">
          <mxGeometry relative="1" as="geometry" />
        </mxCell>
        <mxCell id="3qK-AXKtgEHq6JbBa0pC-6" value="tnc" style="ellipse;whiteSpace=wrap;html=1;rounded=0;shadow=0;glass=0;sketch=1;fillColor=#ffe6cc;strokeColor=#d79b00;" parent="1" vertex="1">
          <mxGeometry x="280" y="430" width="120" height="80" as="geometry" />
        </mxCell>
        <mxCell id="3qK-AXKtgEHq6JbBa0pC-7" value="server2" style="ellipse;shape=cloud;whiteSpace=wrap;html=1;rounded=0;shadow=0;glass=0;sketch=1;fillColor=#e1d5e7;strokeColor=#9673a6;" parent="1" vertex="1">
          <mxGeometry x="520" y="430" width="120" height="80" as="geometry" />
        </mxCell>
        <mxCell id="n1L31r3AyS97ezKsWL2b-1" value="" style="group" vertex="1" connectable="0" parent="1">
          <mxGeometry x="70" y="170" width="285" height="40" as="geometry" />
        </mxCell>
        <mxCell id="-IXOT3juRqkGH1phSfW5-1" value="client" style="rounded=0;whiteSpace=wrap;html=1;sketch=1;fillColor=#dae8fc;strokeColor=#6c8ebf;shadow=0;glass=0;" parent="n1L31r3AyS97ezKsWL2b-1" vertex="1">
          <mxGeometry y="5" width="60" height="30" as="geometry" />
        </mxCell>
        <mxCell id="-IXOT3juRqkGH1phSfW5-2" value="tnc" style="ellipse;whiteSpace=wrap;html=1;rounded=0;shadow=0;glass=0;sketch=1;fillColor=#ffe6cc;strokeColor=#d79b00;" parent="n1L31r3AyS97ezKsWL2b-1" vertex="1">
          <mxGeometry x="105" width="60" height="40" as="geometry" />
        </mxCell>
        <mxCell id="-IXOT3juRqkGH1phSfW5-5" style="edgeStyle=orthogonalEdgeStyle;rounded=0;orthogonalLoop=1;jettySize=auto;html=1;exitX=1;exitY=0.5;exitDx=0;exitDy=0;" parent="n1L31r3AyS97ezKsWL2b-1" source="-IXOT3juRqkGH1phSfW5-1" target="-IXOT3juRqkGH1phSfW5-2" edge="1">
          <mxGeometry relative="1" as="geometry" />
        </mxCell>
        <mxCell id="-IXOT3juRqkGH1phSfW5-3" value="server1" style="ellipse;shape=cloud;whiteSpace=wrap;html=1;rounded=0;shadow=0;glass=0;sketch=1;fillColor=#e1d5e7;strokeColor=#9673a6;" parent="n1L31r3AyS97ezKsWL2b-1" vertex="1">
          <mxGeometry x="225" width="60" height="40" as="geometry" />
        </mxCell>
        <mxCell id="-IXOT3juRqkGH1phSfW5-7" style="rounded=0;orthogonalLoop=1;jettySize=auto;html=1;exitX=1;exitY=0.5;exitDx=0;exitDy=0;entryX=0.16;entryY=0.55;entryDx=0;entryDy=0;entryPerimeter=0;" parent="n1L31r3AyS97ezKsWL2b-1" source="-IXOT3juRqkGH1phSfW5-2" target="-IXOT3juRqkGH1phSfW5-3" edge="1">
          <mxGeometry relative="1" as="geometry" />
        </mxCell>
        <mxCell id="3qK-AXKtgEHq6JbBa0pC-2" value="" style="verticalLabelPosition=bottom;verticalAlign=top;html=1;shape=mxgraph.basic.x;sketch=1;fillColor=#f8cecc;strokeColor=#b85450;" parent="n1L31r3AyS97ezKsWL2b-1" vertex="1">
          <mxGeometry x="180" y="12.5" width="15" height="15" as="geometry" />
        </mxCell>
        <mxCell id="n1L31r3AyS97ezKsWL2b-3" value="client" style="rounded=0;whiteSpace=wrap;html=1;sketch=1;fillColor=#dae8fc;strokeColor=#6c8ebf;shadow=0;glass=0;" vertex="1" parent="1">
          <mxGeometry x="420" y="175" width="60" height="30" as="geometry" />
        </mxCell>
        <mxCell id="n1L31r3AyS97ezKsWL2b-4" value="tnc" style="ellipse;whiteSpace=wrap;html=1;rounded=0;shadow=0;glass=0;sketch=1;fillColor=#ffe6cc;strokeColor=#d79b00;" vertex="1" parent="1">
          <mxGeometry x="525" y="170" width="60" height="40" as="geometry" />
        </mxCell>
        <mxCell id="n1L31r3AyS97ezKsWL2b-5" style="edgeStyle=orthogonalEdgeStyle;rounded=0;orthogonalLoop=1;jettySize=auto;html=1;exitX=1;exitY=0.5;exitDx=0;exitDy=0;" edge="1" parent="1" source="n1L31r3AyS97ezKsWL2b-3" target="n1L31r3AyS97ezKsWL2b-4">
          <mxGeometry x="420" y="170" as="geometry" />
        </mxCell>
        <mxCell id="n1L31r3AyS97ezKsWL2b-6" value="server2" style="ellipse;shape=cloud;whiteSpace=wrap;html=1;rounded=0;shadow=0;glass=0;sketch=1;fillColor=#e1d5e7;strokeColor=#9673a6;" vertex="1" parent="1">
          <mxGeometry x="645" y="170" width="60" height="40" as="geometry" />
        </mxCell>
        <mxCell id="n1L31r3AyS97ezKsWL2b-7" style="rounded=0;orthogonalLoop=1;jettySize=auto;html=1;exitX=1;exitY=0.5;exitDx=0;exitDy=0;entryX=0.16;entryY=0.55;entryDx=0;entryDy=0;entryPerimeter=0;" edge="1" parent="1" source="n1L31r3AyS97ezKsWL2b-4" target="n1L31r3AyS97ezKsWL2b-6">
          <mxGeometry x="420" y="170" as="geometry" />
        </mxCell>
        <mxCell id="n1L31r3AyS97ezKsWL2b-9" value="" style="verticalLabelPosition=bottom;verticalAlign=top;html=1;shape=mxgraph.basic.tick;sketch=1;fillColor=#d5e8d4;opacity=50;strokeColor=#82b366;" vertex="1" parent="1">
          <mxGeometry x="600" y="180" width="17" height="20" as="geometry" />
        </mxCell>
        <mxCell id="n1L31r3AyS97ezKsWL2b-10" value="" style="endArrow=none;html=1;" edge="1" parent="1">
          <mxGeometry width="50" height="50" relative="1" as="geometry">
            <mxPoint x="290" y="330" as="sourcePoint" />
            <mxPoint x="450" y="330" as="targetPoint" />
          </mxGeometry>
        </mxCell>
        <mxCell id="n1L31r3AyS97ezKsWL2b-11" value="" style="whiteSpace=wrap;html=1;sketch=1;fillColor=#f8cecc;opacity=50;strokeColor=#b85450;" vertex="1" parent="1">
          <mxGeometry x="310" y="310" width="20" height="20" as="geometry" />
        </mxCell>
        <mxCell id="n1L31r3AyS97ezKsWL2b-12" value="" style="whiteSpace=wrap;html=1;sketch=1;fillColor=#d5e8d4;opacity=50;strokeColor=#82b366;" vertex="1" parent="1">
          <mxGeometry x="355" y="270" width="20" height="60" as="geometry" />
        </mxCell>
        <mxCell id="n1L31r3AyS97ezKsWL2b-13" value="" style="whiteSpace=wrap;html=1;sketch=1;fillColor=#dae8fc;opacity=50;strokeColor=#6c8ebf;" vertex="1" parent="1">
          <mxGeometry x="400" y="290" width="20" height="40" as="geometry" />
        </mxCell>
        <mxCell id="n1L31r3AyS97ezKsWL2b-15" value="server1" style="text;html=1;strokeColor=none;fillColor=none;align=center;verticalAlign=middle;whiteSpace=wrap;rounded=0;sketch=1;opacity=50;" vertex="1" parent="1">
          <mxGeometry x="300" y="338" width="40" height="20" as="geometry" />
        </mxCell>
        <mxCell id="n1L31r3AyS97ezKsWL2b-16" value="server2" style="text;html=1;strokeColor=none;fillColor=none;align=center;verticalAlign=middle;whiteSpace=wrap;rounded=0;sketch=1;opacity=50;" vertex="1" parent="1">
          <mxGeometry x="345" y="338" width="40" height="20" as="geometry" />
        </mxCell>
        <mxCell id="n1L31r3AyS97ezKsWL2b-18" value="server3" style="text;html=1;strokeColor=none;fillColor=none;align=center;verticalAlign=middle;whiteSpace=wrap;rounded=0;sketch=1;opacity=50;" vertex="1" parent="1">
          <mxGeometry x="390" y="338" width="40" height="20" as="geometry" />
        </mxCell>
        <mxCell id="n1L31r3AyS97ezKsWL2b-19" value="" style="curved=1;endArrow=classic;html=1;exitX=1;exitY=1;exitDx=0;exitDy=0;exitPerimeter=0;entryX=0.5;entryY=0;entryDx=0;entryDy=0;dashed=1;dashPattern=1 4;" edge="1" parent="1" source="3qK-AXKtgEHq6JbBa0pC-2" target="n1L31r3AyS97ezKsWL2b-11">
          <mxGeometry width="50" height="50" relative="1" as="geometry">
            <mxPoint x="310" y="380" as="sourcePoint" />
            <mxPoint x="360" y="330" as="targetPoint" />
            <Array as="points">
              <mxPoint x="310" y="250" />
              <mxPoint x="328" y="280" />
            </Array>
          </mxGeometry>
        </mxCell>
        <mxCell id="n1L31r3AyS97ezKsWL2b-22" value="" style="curved=1;endArrow=classic;html=1;dashed=1;dashPattern=1 4;exitX=0.32;exitY=0.992;exitDx=0;exitDy=0;exitPerimeter=0;entryX=0.5;entryY=0;entryDx=0;entryDy=0;" edge="1" parent="1" source="n1L31r3AyS97ezKsWL2b-9" target="n1L31r3AyS97ezKsWL2b-12">
          <mxGeometry width="50" height="50" relative="1" as="geometry">
            <mxPoint x="570" y="330" as="sourcePoint" />
            <mxPoint x="380" y="270" as="targetPoint" />
            <Array as="points">
              <mxPoint x="570" y="260" />
              <mxPoint x="365" y="230" />
            </Array>
          </mxGeometry>
        </mxCell>
        <mxCell id="n1L31r3AyS97ezKsWL2b-23" value="" style="shape=singleArrow;direction=south;whiteSpace=wrap;html=1;sketch=1;fillColor=#ffffff;opacity=50;" vertex="1" parent="1">
          <mxGeometry x="330" y="370" width="70" height="38" as="geometry" />
        </mxCell>
      </root>
    </mxGraphModel>
  </diagram>
</mxfile>
